PathFileType	4	(X/Y/Z)	../Python\walking\Walking10\task.trc
DataRate	CameraRate	NumFrames	NumMarkers	Units	OrigDataRate	OrigDataStartFrame	OrigNumFrames
200.000000	200.000000	6	30	mm	200.000000	149	598
Frame#	Time	CLAV			STRN			RASI			LASI			RTH1			RTH2			RTH3			RTB1			RTB3			RD5M			RTOE			LTH1			LTH2			LTH3			LTB1			LTB2			LTB3			LTOE			LD5M			RTB2			T10			RHEE			C7			PE02			PE03			RPSI			LPSI			PE01			RBAK			LHEE			
		X1	Y1	Z1	X2	Y2	Z2	X3	Y3	Z3	X4	Y4	Z4	X5	Y5	Z5	X6	Y6	Z6	X7	Y7	Z7	X8	Y8	Z8	X9	Y9	Z9	X10	Y10	Z10	X11	Y11	Z11	X12	Y12	Z12	X13	Y13	Z13	X14	Y14	Z14	X15	Y15	Z15	X16	Y16	Z16	X17	Y17	Z17	X18	Y18	Z18	X19	Y19	Z19	X20	Y20	Z20	X21	Y21	Z21	X22	Y22	Z22	X23	Y23	Z23	X24	Y24	Z24	X25	Y25	Z25	X26	Y26	Z26	X27	Y27	Z27	X28	Y28	Z28	X29	Y29	Z29	X30	Y30	Z30	

150	0.745	15.43404960632325	1416.674438476563	199.5445098876954	70.72995758056643	1224.216552734375	218.6663513183595	40.06698226928712	997.3566894531255	356.8959350585939	63.35391235351565	1027.20458984375	84.36721801757815	0.832794308662415	726.6292724609377	388.5794982910159	-54.80295181274417	702.9798583984377	374.1177368164064	-33.19366455078126	657.6483154296877	368.6839904785157	-126.3583526611329	366.9563598632814	344.9846191406251	-194.3518829345704	326.4839477539064	335.5700683593751	-441.896179199219	113.4521026611329	330.8319396972657	-409.2421875000002	75.297477722168	296.5047607421876	49.51153564453128	714.6903076171877	45.50611495971681	29.96795082092287	669.7991943359377	58.52933883666995	87.08193969726565	648.2390136718752	65.04701232910159	85.58576965332034	354.8855285644532	97.26187133789068	57.28096771240237	315.6181945800782	110.8401489257813	108.9316101074219	280.9548339843751	110.1219940185547	254.9850311279298	31.40710830688478	176.0028076171876	207.2804107666017	17.37560081481934	127.619010925293	-187.5866394042969	375.5043334960939	346.7806701660157	-156.784896850586	1246.583984375	206.618133544922	-451.7332458496096	269.7909545898439	256.8065490722657	-103.0774993896485	1504.469848632813	183.5176544189454	-122.249252319336	1034.348388671875	240.5305786132814	-124.0503234863282	1039.10546875	189.6461791992188	-117.7081756591797	1044.699340820313	265.0186462402345	-117.9622421264649	1055.574096679688	165.4353332519532	-112.7602615356446	1097.213989257813	219.9896087646486	-120.4137115478516	1427.4853515625	363.4282226562501	40.98264694213869	34.17960739135744	190.7576904296876	
151	0.75	22.02265167236329	1417.664916992188	199.3518371582032	77.04246520996097	1225.090209960938	218.4874725341798	46.31147384643556	998.6283569335942	356.594207763672	69.4719161987305	1028.091552734375	83.93241882324222	9.937617301940922	727.7889404296877	388.4111938476565	-45.13768386840822	703.2125244140627	373.3162231445314	-22.72714233398438	658.2881469726565	368.1748657226564	-111.3332824707032	368.2058715820314	345.0167236328126	-179.4994812011719	328.0268859863282	335.5694274902345	-426.6151123046877	116.5313873291016	332.4256591796876	-393.4507446289065	77.77805328369143	298.9951171875001	52.72688674926761	715.0632324218752	45.44832229614259	32.75403213500978	670.321472167969	58.54693984985354	89.67813110351565	648.239196777344	64.86995697021487	86.6730651855469	354.8853149414064	97.12341308593756	58.25155258178714	315.7641906738282	110.8256607055665	109.7391891479493	280.8467102050782	109.8643646240235	255.0357208251954	31.30881500244142	175.961166381836	207.2591094970704	17.28623580932618	127.5426330566407	-172.529037475586	377.0087890625001	346.8638610839845	-150.3787841796876	1247.792358398438	206.1485900878907	-437.7915344238284	271.4902343750001	255.7832031250001	-96.33612060546881	1505.6162109375	183.1907501220704	-115.9994277954102	1035.259521484375	240.1352691650392	-117.8634262084962	1040.037353515625	189.2407684326172	-111.4485321044922	1045.58837890625	264.6133728027345	-111.7686004638672	1056.542724609375	165.0708770751954	-106.4976425170899	1098.137084960938	219.6378173828126	-113.9338302612305	1428.626953125	363.0465393066407	40.96545410156251	34.22605895996095	190.8382263183594	
152	0.755	28.55696296691896	1418.654663085938	199.1666870117189	83.30405426025393	1225.97314453125	218.2994995117189	52.53052139282229	999.9594726562505	356.2944641113282	75.54493713378909	1028.937377929688	83.50440979003909	18.93809509277344	729.0674438476565	388.288024902344	-35.55065917968751	703.5942382812502	372.5259399414064	-12.35855770111085	659.087585449219	367.6722106933595	-96.31897735595709	369.6504516601564	345.0440063476564	-164.6036529541016	329.6744689941407	335.5770874023439	-410.7812194824221	119.2495880126954	333.9971923828126	-377.0239562988282	80.02289581298831	301.414520263672	55.94544219970706	715.478698730469	45.40825653076173	35.59588623046876	670.886413574219	58.56741333007815	92.351676940918	648.327575683594	64.68975067138675	87.76480102539065	354.9114685058595	96.99454498291021	59.22269821166995	315.926971435547	110.7786941528321	110.5580368041993	280.7714843750001	109.639389038086	255.0812835693361	31.22047805786134	175.9302978515626	207.2421264648439	17.20996284484864	127.4754486083985	-157.4943847656251	378.6469726562501	346.8319396972657	-144.0235900878907	1249.001220703125	205.6658935546876	-423.7234191894534	272.768524169922	254.7501373291017	-89.63951110839847	1506.763916015625	182.8753814697266	-109.7743530273438	1036.219604492188	239.7307739257814	-111.7034225463868	1041.008422851563	188.8251953125001	-105.2145156860352	1046.530517578125	264.1973266601564	-105.599594116211	1057.533569335938	164.6894531250001	-100.2584457397462	1099.098510742188	219.2618255615236	-107.510482788086	1429.755493164063	362.6650390625001	40.94960784912111	34.27606582641603	190.9164733886719	
153	0.76	35.03931427001955	1419.642578125	198.9871673583986	89.5192565917969	1226.86572265625	218.0998077392579	58.73060226440433	1001.344665527344	355.9913330078126	81.57373809814456	1029.746215820313	83.07994079589847	27.8434238433838	730.4545898437502	388.207702636719	-26.03420829772951	704.1146240234377	371.7495727539064	-2.079608201980592	660.0332641601565	367.1789855957032	-81.32538604736331	371.2773742675782	345.0684204101564	-149.6727905273438	331.4102172851564	335.5972290039064	-394.4356994628909	121.5903015136719	335.525604248047	-360.0171508789064	82.0158615112305	303.7311096191407	59.2044486999512	715.937927246094	45.37842178344728	38.52654266357423	671.4975585937502	58.5783500671387	95.12996673583987	648.4995727539065	64.50868988037112	88.86652374267581	354.9625244140626	96.87278747558599	60.19778060913089	316.105926513672	110.6979675292969	111.3908843994141	280.7276611328126	109.4475250244141	255.1206054687501	31.1434669494629	175.9077911376954	207.2282257080079	17.14670372009278	127.4167861938477	-142.4926300048829	380.4025268554689	346.6900024414064	-137.7152099609376	1250.207641601563	205.1716156005861	-409.5247192382815	273.629608154297	253.7395324707032	-82.98651885986331	1507.910034179688	182.570785522461	-103.5704040527344	1037.226928710938	239.3242187500001	-105.5669174194337	1042.016357421875	188.4069519042969	-99.0014266967774	1047.524169921875	263.7772521972657	-99.45297241210943	1058.545288085938	164.2978210449219	-94.04055786132815	1100.0966796875	218.8673553466798	-101.1402664184571	1430.869262695313	362.2829895019532	40.9346046447754	34.32902145385744	190.9919738769532	
154	0.765	41.47231292724611	1420.627197265625	198.8114166259767	95.69257354736331	1227.768432617188	217.8860015869142	64.91743469238284	1002.777954101563	355.6798095703126	87.55931091308597	1030.521728515625	82.655632019043	36.66370773315431	731.9403076171877	388.1675720214846	-16.58011627197266	704.7627563476565	370.9901428222657	8.118770599365238	661.1118774414065	366.6982727050782	-66.36073303222659	373.0705566406251	345.0903320312501	-134.7140502929688	333.2154541015626	335.6323547363282	-377.6189880371095	123.5415420532227	336.9918518066407	-342.4823303222657	83.74604797363284	305.917694091797	62.53157806396487	716.4378051757815	45.35246658325197	41.56681060791017	672.153991699219	58.57021331787112	98.02706909179693	648.7441406250002	64.33078765869143	89.98040008544925	355.0359802246095	96.75526428222662	61.17753982543948	316.2996520996095	110.5837554931641	112.2374267578126	280.7124938964845	109.2873840332032	255.1528778076173	31.07841110229494	175.8912963867188	207.2163696289064	17.09574508666993	127.3658599853516	-127.5319366455079	382.2558593750001	346.4456176757814	-131.4495697021485	1251.40869140625	204.6674957275392	-395.1914062500002	274.0773010253907	252.7786254882814	-76.37571716308597	1509.051391601563	182.2762145996094	-97.38440704345709	1038.278442382813	238.9226837158204	-99.45088195800787	1043.057739257813	187.9934844970704	-92.80511474609378	1048.56689453125	263.3598937988282	-93.32686614990237	1059.5751953125	163.9027862548829	-87.84221649169925	1101.128784179688	218.4601898193361	-94.81951904296878	1431.966796875	361.8998413085939	40.92012405395509	34.38459396362306	191.0642852783204	
155	0.77	47.85881805419923	1421.60693359375	198.6376800537111	101.8284149169922	1228.680908203125	217.6559448242189	71.09594726562503	1004.253051757813	355.3551025390626	93.50288391113284	1031.266967773438	82.22811126708987	45.40971755981447	733.514587402344	388.1646728515627	-7.179893970489506	705.5273437500002	370.2508239746095	18.246000289917	662.3101196289065	366.2333068847657	-51.43177413940433	375.0111389160157	345.1084899902345	-119.7335281372071	335.0698852539064	335.6831054687501	-360.3696594238282	125.0954742431641	338.3792114257814	-324.4671020507814	85.20711517333987	307.9519348144532	65.94458007812503	716.9713134765627	45.32519912719728	44.72550582885744	672.850769042969	58.53638076782229	101.0448303222657	649.0455322265627	64.16114044189456	91.10565185546878	355.1285095214845	96.63906860351568	62.1604919433594	316.5061340332032	110.4377593994141	113.0949249267579	280.722381591797	109.156120300293	255.1776885986329	31.02527999877931	175.8786163330079	207.2056427001954	17.05590057373048	127.3217697143555	-112.6189193725587	384.1846313476565	346.108612060547	-125.2226486206055	1252.601318359375	204.155242919922	-380.7199096679689	274.1151123046876	251.8893585205079	-69.80543518066409	1510.18505859375	181.9908752441407	-91.21363830566409	1039.370483398438	238.5330505371095	-93.352653503418	1044.1279296875	187.5919799804688	-86.62194824218753	1049.655395507813	262.9516906738282	-87.21971130371097	1060.6201171875	163.5110321044922	-81.66201019287112	1102.19140625	218.0460052490236	-88.54432678222659	1433.046752929688	361.5149841308595	40.90602493286134	34.44274520874025	191.1329650878907	
